# xmcd CD database file
#
# Track frame offsets:
#	150
#	12372
#	43675
#	80570
#	91815
#	121597
#	179527
#	251530
#	298525
#
# Disc length: 4295 seconds
#
# Revision: 0
# Processed by: cddbd v1.5.2PL0 Copyright (c) Steve Scherf et al.
# Submitted via: CDex 1.70beta2
#
DISCID=6e10c509
DTITLE=hansjörg schmitthenner - welthören cd 3 asien
DYEAR=1990
DGENRE=New Age
TTITLE0=nepal_wirbelstürme in katmandu
TTITLE1=tibet_mönchebeim gesang
TTITLE2=himalaya_wildbäche und ströme, erdbeben, fahrende sänger
TTITLE3=shanghai_peking oper
TTITLE4=nordindische tiefebene_ein dorf erwacht, frauen im tempel, kinder in der schule
TTITLE5=calcutta_bahnhof, howrabridge, opferblut-tempel kali, im sterbehaus von mutter theresa
TTITLE6=bali_arbeit auf den reisterrassen, mittag im urwald, zikadengesänge abends
TTITLE7=vietnam-krieg mit aufnahmen von einem kriegsberichterstatter
TTITLE8=rauschen des weltalls_töne der planeten
EXTD=YEAR: 1990
EXTT0=
EXTT1=
EXTT2=
EXTT3=
EXTT4=
EXTT5=
EXTT6=
EXTT7=
EXTT8=
PLAYORDER=
